<?xml version="1.0" encoding="utf-8"?>
<!-- Generator: Adobe Illustrator 23.0.2, SVG Export Plug-In . SVG Version: 6.00 Build 0)  -->
<svg version="1.1" xmlns="http://www.w3.org/2000/svg" xmlns:xlink="http://www.w3.org/1999/xlink" x="0px" y="0px"
	 viewBox="0 0 1790 800" style="enable-background:new 0 0 1790 800;" xml:space="preserve">
<style type="text/css">
	* {
	fill:#FF3660;
	stroke:#FF3660;
	}
	.st0{display:none;}
	.st1{fill:#FFFFFF;stroke:#FFFFFF;}
	.st2{stroke-width:2;stroke-miterlimit:10;}
	.st3{stroke-width:4;stroke-miterlimit:10;}
	.st4{stroke-width:3;stroke-miterlimit:10;}
</style>
<g id="computer">
	<path d="M1167,413c8,0,8,0,8.4-55.1l0.7-127.7c0-21.6-17.6-39.2-39.2-39.2H606.2c-21.6,0-39.2,17.6-39.2,39.2v431.3
		c0,19.6,14.5,35.9,33.3,38.8c1.9,0.3,3.9,0.5,6,0.5h173.5v32h-26.9c-18,0-32.6,14.6-32.6,32.6v19.3c0,8.2,6.7,14.9,14.9,14.9h42.5
		c4.9,0,8.9-4,8.9-8.9c0-4.9-4-8.9-8.9-8.9H738v-16.3c0-8.1,6.6-14.7,14.7-14.7h236.9c8.1,0,14.7,6.6,14.7,14.7v16.3H832.9
		c-4.9,0-8.9,4-8.9,8.9c0,4.9,4,8.9,8.9,8.9h174.4c8.2,0,14.9-6.7,14.9-14.9v-19.3c0-18-14.6-32.6-32.6-32.6h-26.9v-32h173.5
		c2,0,4-0.2,6-0.5c18.8-2.9,33.3-19.2,33.3-38.8L1175,369c0-4.9-3.1-6-8-6c-4.9,0-9-0.9-9,4l-0.4,242.9L585,610l1-298l571.6,0.3
		v45.7C1158,413,1158,413,1167,413z M944.9,732.8H797.5v-32h147.4V732.8z M1157.6,627.8v33.8c0,11.1-8.4,20.2-19.2,21.3
		c-0.7,0.1-1.4,0.1-2.2,0.1h-530c-0.7,0-1.5,0-2.2-0.1c-10.8-1.1-19.2-10.2-19.2-21.3v-33.8H1157.6z M870,294.4H585.5v-64.2
		c0-11.8,9.6-21.4,21.4-21.4h529.3c11.8,0,21.4,9.6,21.4,21.4v64.2H870z"/>
	<path class="st0" d="M686.3,268.3c-9.8,0-17.8-8-17.8-17.8c0-9.8,8-17.8,17.8-17.8c9.8,0,17.8,8,17.8,17.8
		C704.1,260.3,696.1,268.3,686.3,268.3z M686.3,243.9c-3.6,0-6.6,2.9-6.6,6.6c0,3.6,2.9,6.6,6.6,6.6c3.6,0,6.6-2.9,6.6-6.6
		C692.8,246.8,689.9,243.9,686.3,243.9z"/>
	<path class="st0" d="M631.5,268.1c-9.8,0-17.8-8-17.8-17.8c0-9.8,8-17.8,17.8-17.8c9.8,0,17.8,8,17.8,17.8
		C649.3,260.1,641.3,268.1,631.5,268.1z M631.5,243.7c-3.6,0-6.6,2.9-6.6,6.6c0,3.6,2.9,6.6,6.6,6.6c3.6,0,6.6-2.9,6.6-6.6
		C638,246.6,635.1,243.7,631.5,243.7z"/>
	<path class="st0" d="M741,268.4c-9.8,0-17.8-8-17.8-17.8c0-9.8,8-17.8,17.8-17.8c9.8,0,17.8,8,17.8,17.8
		C758.9,260.4,750.9,268.4,741,268.4z M741,244c-3.6,0-6.6,2.9-6.6,6.6s2.9,6.6,6.6,6.6c3.6,0,6.6-2.9,6.6-6.6S744.7,244,741,244z"
		/>
	<g id="html">
		<rect x="704" y="135" class="st1" width="328" height="274"/>
		<rect x="664" y="148" class="st1" width="57" height="100"/>
		<path d="M717.6,200h-22.1v25.6c0,2-2.3,3-4.7,3c-2.3,0-4.7-1-4.7-3v-56.2c0-2,2.4-2.9,4.7-2.9c2.4,0,4.7,0.8,4.7,2.9v23.4h22.1
			v-23.4c0-2,2.4-2.9,4.7-2.9c2.4,0,4.7,0.8,4.7,2.9v56.2c0,2-2.3,3-4.7,3c-2.3,0-4.7-1-4.7-3V200z"/>
		<path d="M774.1,166.6c2.1,0,3.1,2,3.1,4c0,2.2-1.1,4.2-3.1,4.2h-13.7v50.8c0,2-2.4,3-4.7,3c-2.4,0-4.7-1-4.7-3v-50.8h-13.8
			c-2,0-3.1-2-3.1-4.2c0-2,1-4.1,3.1-4.1H774.1z"/>
		<path d="M812.3,206c-1,1.5-2.2,2-3.5,2c-1.2,0-2.4-0.5-3.2-2l-11.9-21.6v41.3c0,2-2.3,3-4.7,3c-2.3,0-4.7-1-4.7-3v-54.6
			c0-3.3,2.3-4.5,4.7-4.5c3.4,0,5.2,1.1,7.5,5.1l12.4,22.5l12.6-22.5c2.2-4,4-5.1,7.4-5.1c2.5,0,4.7,1.2,4.7,4.5v54.6
			c0,2-2.3,3-4.7,3c-2.3,0-4.7-1-4.7-3v-40.7L812.3,206z"/>
		<path d="M849.6,228.6c-2,0-4.2-1-4.2-3v-56.2c0-2,2.4-2.9,4.7-2.9c2.4,0,4.7,0.8,4.7,2.9v51.2h23.1c1.9,0,2.8,2,2.8,4
			c0,2-1,4-2.8,4H849.6z"/>
		<path d="M1043.7,122c-7-6.2-13.9-12.3-20.9-18.5c-17.7-15.6-35.4-31.3-53.1-46.9c-7-6.1-13.9-12.3-20.8-18.4
			c-3.1-2.7-7.5-8.1-11.9-8.2c0,0-0.1,0-0.1,0H716.4c-13.8,0-25.1,10.7-25.1,24v82.6h-16.2c-13.3,0-24.1,10.3-24.1,23v78
			c0,12.7,10.8,23,24.1,23h16.2v48.8c0,3.6,3.1,6.5,6.8,6.5c3.8,0,6.8-2.9,6.8-6.5v-48.8h182c13.3,0,24.1-10.3,24.1-23v-78
			c0-12.7-10.8-23-24.1-23h-76.8c-3.8,0-6.8,2.9-6.8,6.5c0,3.6,3.1,6.5,6.8,6.5H887c5.7,0,10.4,4.5,10.4,10v78
			c0,5.5-4.7,9.9-10.4,9.9H675.1c-5.7,0-10.4-4.5-10.4-9.9v-78c0-5.5,4.7-10,10.4-10h93.4c3.8,0,6.8-2.9,6.8-6.5
			c0-3.6-3.1-6.5-6.8-6.5H705V54c0-6,5.1-10.9,11.4-10.9H930v66.6c0,13.2,11.3,24,25.1,24h77.1V452c0,6-5.1,10.9-11.4,10.9H716.4
			c-6.3,0-11.4-4.9-11.4-10.9V351c0-3.6-3.1-6.5-6.8-6.5c-3.8,0-6.8,2.9-6.8,6.5V452c0,13.2,11.3,24,25.1,24h304.4
			c13.8,0,25.1-10.7,25.1-24V126.8C1045.9,125,1045.1,123.3,1043.7,122z M955.1,120.5c-6.3,0-11.4-4.9-11.4-10.9V51.5l77.9,69H955.1
			z"/>
		<path d="M830.9,284.7c-2.7-2.6-7-2.6-9.7,0l-42.9,40.9c-2.7,2.6-2.7,6.7,0,9.2l42.9,40.9c1.3,1.3,3.1,1.9,4.8,1.9
			c1.7,0,3.5-0.6,4.8-1.9c2.7-2.6,2.7-6.7,0-9.2l-38-36.3l38-36.3C833.5,291.4,833.5,287.3,830.9,284.7z"/>
		<path d="M906.2,375.9c1.3,1.3,3.1,1.9,4.8,1.9c1.8,0,3.5-0.6,4.8-1.9l42.9-40.9c2.7-2.6,2.7-6.7,0-9.2l-42.9-40.9
			c-2.7-2.6-7-2.6-9.7,0c-2.7,2.6-2.7,6.7,0,9.2l38,36.3l-38,36.3C903.6,369.2,903.6,373.3,906.2,375.9z"/>
		<path d="M851.7,377.8c2.7,0,5.3-1.6,6.4-4.1l33.7-81.9c1.4-3.4-0.3-7.2-3.9-8.5c-3.5-1.3-7.5,0.3-8.9,3.7l-33.7,81.9
			c-1.4,3.4,0.3,7.1,3.9,8.5C850,377.6,850.9,377.8,851.7,377.8z"/>
	</g>
</g>
<g id="cactus">
	<path d="M254.1,552.5c-0.7-2.3-3.2-3.6-5.5-2.8l-4.8,1.5c-0.6-1-1.2-1.9-1.8-2.9l3.9-4.1c1.7-1.8,1.6-4.6-0.2-6.2
		c-1.8-1.7-4.6-1.6-6.2,0.2l-3.2,3.4c-0.5-0.5-1-0.9-1.5-1.4l3-4.4c1.4-2,0.8-4.8-1.2-6.1c-2-1.4-4.8-0.8-6.1,1.2l-3,4.4
		c-1.3-0.7-2.6-1.3-4-1.8c-9.8-3.7-20.8-3-31,2c-2.3,1.1-4.4,2.4-6.5,3.8l-1-3.2c-0.7-2.3-3.2-3.6-5.5-2.8c-2.3,0.7-3.6,3.2-2.8,5.5
		l2.1,6.7c-2.5,2.6-4.9,5.5-6.9,8.7l-4.5-2.7c-2.1-1.3-4.8-0.6-6,1.5c-1.3,2.1-0.6,4.8,1.5,6l4.8,2.9c-1,2.2-1.9,4.5-2.7,6.9
		c-2.2,6.9-4,13.7-5.2,20.2c-4.9-1.2-10-1.9-15.2-1.9c-1.2,0-2.4,0-3.6,0.1c-0.2-4-0.5-8-1-11.9l2.3-0.4c2.4-0.5,3.9-2.8,3.5-5.2
		c-0.5-2.4-2.8-3.9-5.2-3.5l-1.9,0.4c-1.4-7.5-3.3-14.8-5.7-21.8c-2.4-6.8-5.4-13-9-18.6l4.5-3.5c1.9-1.5,2.3-4.3,0.8-6.2
		c-1.5-1.9-4.3-2.3-6.2-0.8l-4.3,3.3c-3.4-4.1-7.2-7.7-11.2-10.6c-8.3-6-18.5-9.5-28.8-8.8c-9.9,0.7-19.1,5.3-26,12.3
		c-3.2,3.3-5.9,7.1-8.1,11.1c-0.8,1.5-1.5,3-2.1,4.5l-3.8-1.8c-2.2-1-4.8-0.1-5.8,2.1c-1,2.2-0.1,4.8,2.1,5.8l4.8,2.2
		c-0.3,1.4-0.6,2.9-0.8,4.4h-4.3c-2.4,0-4.4,2-4.4,4.4s2,4.4,4.4,4.4H38c0,7.1,1.1,14.5,3.5,21.7c0.5,1.4,1,2.8,1.5,4.1l-3.9,2.6
		c-2,1.3-2.6,4.1-1.2,6.1c1.3,1.9,4.1,2.5,6.1,1.2l2.7-1.8c9.7,18.8,25.6,33.4,39.1,43.4c-2.2,5.4-3.7,11.2-4.3,17.3l-3.2-0.9
		c-2.3-0.7-4.8,0.7-5.5,3c-0.7,2.3,0.7,4.8,3,5.5l5.3,1.5c0.1,5.5,0.4,11,0.9,16.6l-7,2.4c-2.3,0.8-3.5,3.3-2.7,5.6
		c0.8,2.2,3.3,3.5,5.6,2.7l5.2-1.8c0.7,4.9,1.5,9.7,2.5,14.6H73.8c-5.4,0-9.7,4.4-9.7,9.7v6.7c0,5.4,4.4,9.7,9.7,9.7h4.3L95,790.3
		c1.4,5.7,6.4,9.7,12.3,9.7h74.4c5.9,0,10.9-4,12.3-9.7l16.9-71.1h4.3c5.4,0,9.7-4.4,9.7-9.7v-6.7c0-5.4-4.4-9.7-9.7-9.7h-12.3
		c1.5-6.8,2.7-13.5,3.5-20.1h6.2c2.4,0,4.4-2,4.4-4.4c0-2.4-2-4.4-4.4-4.4h-5.3c0.4-4.7,0.6-9.2,0.6-13.6c0-2.2-0.1-4.3-0.3-6.4
		c5.5-3.4,10.9-7.7,15.8-12.6l1.6,1.9c1.5,1.8,4.4,2.1,6.2,0.5c1.9-1.6,2.1-4.3,0.5-6.2l-2.4-2.8c1-1.2,2-2.4,2.9-3.6l6.2,1.2
		c2.3,0.5,4.7-1.1,5.2-3.5c0.5-2.4-1.1-4.7-3.5-5.2l-2.4-0.5c2.9-4.6,5.4-9.4,7.6-14.4c5.7-13.4,6.5-27.3,2.2-39.7l3.9-1.2
		C253.6,557.3,254.9,554.8,254.1,552.5z M173.2,571.5c4.2-12.8,12.6-23,23.1-28.1c3.9-1.9,7.9-3,11.9-3.3c-4,3.1-8.1,7.3-12,12.4
		c-1.5,1.9-1.1,4.7,0.9,6.2c1.9,1.5,4.7,1.1,6.2-0.9c9.1-12,17.3-15.4,19.4-14.9c0.3,0.4,1.3,2.1,1.3,7.4c0,16.4-9.7,48-25.8,66.5
		c-3.5-5.5-7.8-10.5-12.7-14.7c1.3-9.1,3.7-17.7,7.2-25.8c0.9-2.2-0.1-4.8-2.3-5.8c-2.2-0.9-4.8,0.1-5.8,2.3
		c-3.1,7.4-5.5,15.3-7,23.5c-2.9-1.8-6.1-3.4-9.3-4.7C169.3,585.3,171,578.5,173.2,571.5z M161.3,693H128
		c-3.1-12.4-4.7-25.5-4.7-39.1c0-12.5,2.8-27.6,7.2-39.4c4.2-11.2,9.7-18.5,14-18.5c3.1,0,8.7,5.1,13.9,19.5
		c4.4,12,7.2,27.1,7.2,38.4C165.6,667.8,164.2,680.9,161.3,693z M124.5,547.7c4.4,12.7,7,26.4,7.6,40.7c-3.7,0.7-7.3,1.8-10.8,3.2
		c-2.5-32.4-20.3-68.6-36.4-83c5.9,0.7,11.7,3,17.3,7.1C111.8,522.5,119.7,533.9,124.5,547.7z M105.5,600.7
		c-12.3-11.4-23.2-26.5-30.7-42.9c-7.2-15.5-10.5-30.4-9-39.7c0.4-2.7,1.5-6.1,4.1-7.2c1.8-0.7,4.5,0.8,6,1.7
		c14.3,9.4,35.5,48,36.9,83.1C110.2,597.2,107.8,598.9,105.5,600.7z M49.9,568.2c-4.8-14.4-3.9-29.4,2.2-41c1.3-2.4,2.8-4.7,4.4-6.7
		c-1.1,22.3,14.9,60.4,42.3,86.1c-3.5,3.6-6.5,7.6-9.1,12C64.4,599.5,54,580.8,49.9,568.2z M90,650.5c0-24.6,16.3-45.4,38.7-52.2
		c-8.9,13.7-14.2,37.4-14.2,55.6c0,13.5,1.5,26.6,4.4,39.1H94.6C91.5,678.8,90,664.5,90,650.5z M216.1,702.8v6.7
		c0,0.5-0.4,0.9-0.9,0.9h-99.8c-2.4,0-4.4,2-4.4,4.4c0,2.4,2,4.4,4.4,4.4h86.5l-16.4,69.1c-0.4,1.7-1.9,2.9-3.7,2.9h-74.4
		c-1.8,0-3.3-1.2-3.7-2.9l-16.4-69.1h7.7c2.4,0,4.4-2,4.4-4.4s-2-4.4-4.4-4.4H73.8c-0.5,0-0.9-0.4-0.9-0.9v-6.7
		c0-0.5,0.4-0.9,0.9-0.9h141.4C215.7,701.8,216.1,702.3,216.1,702.8z M170.3,693c2.7-12.2,4.1-25.3,4.1-39.1c0-12.3-3-28.5-7.8-41.4
		c-1.7-4.8-4-9.9-6.8-14.3c22.6,6.7,39.1,27.6,39.1,52.3c0,13.3-1.8,27.9-5.1,42.6H170.3z M237.1,595.5c-6.8,16-18.3,30.2-31.3,39.1
		c-0.8-3.3-1.9-6.4-3.3-9.5c18.7-19.7,30.2-54.7,30.2-74.5c2.1,2.5,3.9,5.5,5.3,8.8C242.7,570.3,242.4,583.1,237.1,595.5z"/>
</g>
<g id="laptop">
	<g>
		<g>
			<rect x="1104" y="447" class="st1" width="87" height="257"/>
			<path d="M1561.4,734.1h-26.8V462.2c0-17-13.7-30.7-30.7-30.7h-384.2c-17,0-30.7,13.7-30.7,30.7v271.9h-24.4
				c-4.2,0-7.6,3.4-7.6,7.6v16.8c0,24.3,19.7,44,44,44h286.5c4.2,0,7.6-3.4,7.6-7.6s-3.4-7.6-7.6-7.6H1101
				c-15.9,0-28.8-12.9-28.8-28.8v-9.2h24.4h154.8c0.3,14.7,12.3,26.6,27.1,26.6h68.9c14.8,0,26.8-11.9,27.1-26.6H1527h26.8v9.2
				c0,15.9-12.9,28.8-28.8,28.8h-102c-4.2,0-7.6,3.4-7.6,7.6s3.4,7.6,7.6,7.6h102c24.3,0,44-19.7,44-44v-16.8
				C1569,737.5,1565.6,734.1,1561.4,734.1z M1347.5,760.7h-68.9c-6.4,0-11.6-5.1-11.9-11.4h92.7
				C1359.1,755.6,1353.9,760.7,1347.5,760.7z M1519.4,734.1h-415.2V462.2c0-8.5,6.9-15.5,15.5-15.5h384.2c8.5,0,15.5,6.9,15.5,15.5
				V734.1z"/>
		</g>
	</g>
</g>
<g id="cup">
	<path class="st2" d="M1752.7,695.3h-23.3v-5.2c0-1.4-1.2-2.6-2.6-2.6h-129.7c-1.4,0-2.6,1.2-2.6,2.6V729
		c0,23.5,13.9,44.9,35.4,54.5h-32.8c-1.4,0-2.6,1.2-2.6,2.6c0,7.2,5.8,13,13,13h121.9c7.2,0,13-5.8,13-13c0-1.4-1.2-2.6-2.6-2.6
		H1694c16.4-7.3,28.6-21.6,33.3-38.9h25.4c1.4,0,2.6-1.2,2.6-2.6v-44.1C1755.3,696.4,1754.1,695.3,1752.7,695.3z M1729.3,710.8h10.4
		V729h-10.4V710.8z M1630.8,708.7l10.4,6.2v32.2h-20.7v-32.2L1630.8,708.7z M1736.7,788.6c-1.1,3.1-4,5.2-7.3,5.2h-121.9
		c-3.3,0-6.2-2.1-7.3-5.2H1736.7z M1669.7,783.5h-15.6c-30.1,0-54.4-24.4-54.5-54.5v-36.3h28.5v11.5l-11.7,7
		c-0.8,0.5-1.3,1.3-1.3,2.2v36.3c0,1.4,1.2,2.6,2.6,2.6h25.9c1.4,0,2.6-1.2,2.6-2.6v-36.3c0-0.9-0.5-1.8-1.3-2.2l-11.7-7v-11.5h90.8
		V729C1724.1,759.1,1699.8,783.4,1669.7,783.5z M1750.1,739.4h-20.7v-5.2h13c1.4,0,2.6-1.2,2.6-2.6v-23.3c0-1.4-1.2-2.6-2.6-2.6h-13
		v-5.2h20.7V739.4z"/>
	<path class="st2" d="M1631.4,682.3c0,1.4,1.2,2.6,2.6,2.6c1.4,0,2.6-1.2,2.6-2.6c0-1.5,0.5-3,1.5-4.1c3.3-4.2,3.3-10.1,0-14.3
		c-1-1.1-1.6-2.6-1.5-4.1c0-1.5,0.5-3,1.5-4.1c1.7-2,2.5-4.5,2.5-7.1c0-1.4-1.2-2.6-2.6-2.6c-1.4,0-2.6,1.2-2.6,2.6
		c0,1.5-0.5,3-1.5,4.1c-1.7,2-2.5,4.5-2.5,7.1c0,2.6,0.9,5.1,2.5,7.1c2,2.4,2,5.9,0,8.2C1632.2,677.2,1631.3,679.7,1631.4,682.3z"/>
	<path class="st2" d="M1662.5,682.3c0,1.4,1.2,2.6,2.6,2.6c1.4,0,2.6-1.2,2.6-2.6c0-1.5,0.5-3,1.5-4.1c3.3-4.2,3.3-10.1,0-14.3
		c-1-1.1-1.6-2.6-1.5-4.1c0-1.5,0.5-3,1.5-4.1c1.7-2,2.5-4.5,2.5-7.1c0-1.4-1.2-2.6-2.6-2.6c-1.4,0-2.6,1.2-2.6,2.6
		c0,1.5-0.5,3-1.5,4.1c-1.7,2-2.5,4.5-2.5,7.1c0,2.6,0.9,5.1,2.5,7.1c2,2.4,2,5.9,0,8.2C1663.3,677.2,1662.4,679.7,1662.5,682.3z"/>
	<path class="st2" d="M1693.6,682.3c0,1.4,1.2,2.6,2.6,2.6c1.4,0,2.6-1.2,2.6-2.6c0-1.5,0.5-3,1.5-4.1c3.3-4.2,3.3-10.1,0-14.3
		c-1-1.1-1.6-2.6-1.5-4.1c0-1.5,0.5-3,1.5-4.1c1.7-2,2.5-4.5,2.5-7.1c0-1.4-1.2-2.6-2.6-2.6c-1.4,0-2.6,1.2-2.6,2.6
		c0,1.5-0.5,3-1.5,4.1c-1.7,2-2.5,4.5-2.5,7.1c0,2.6,0.9,5.1,2.5,7.1c2,2.4,2,5.9,0,8.2C1694.5,677.2,1693.6,679.7,1693.6,682.3z"/>
	<path class="st2" d="M1706,700.5h-31.1c-1.4,0-2.6,1.2-2.6,2.6c0,1.4,1.2,2.6,2.6,2.6h31.1c1.4,0,2.6-1.2,2.6-2.6
		C1708.6,701.6,1707.4,700.5,1706,700.5z"/>
	<path class="st2" d="M1716.4,700.5h-2.6c-1.4,0-2.6,1.2-2.6,2.6c0,1.4,1.2,2.6,2.6,2.6h2.6c1.4,0,2.6-1.2,2.6-2.6
		C1719,701.6,1717.8,700.5,1716.4,700.5z"/>
	<path class="st2" d="M1625.6,742h2.6c1.4,0,2.6-1.2,2.6-2.6c0-1.4-1.2-2.6-2.6-2.6h-2.6c-1.4,0-2.6,1.2-2.6,2.6
		C1623,740.8,1624.2,742,1625.6,742z"/>
	<path class="st2" d="M1634.1,741.2c0.3,0.2,0.5,0.4,0.9,0.5c0.3,0.1,0.6,0.2,1,0.2c0.7,0,1.3-0.3,1.8-0.8c0.2-0.2,0.4-0.5,0.5-0.9
		c0.3-0.6,0.3-1.3,0-2c-0.1-0.3-0.3-0.6-0.5-0.9c-0.7-0.7-1.9-1-2.8-0.5c-0.3,0.1-0.6,0.3-0.9,0.5c-0.2,0.2-0.4,0.5-0.5,0.9
		c-0.3,0.6-0.3,1.3,0,2C1633.7,740.7,1633.9,741,1634.1,741.2z"/>
</g>
<g id="duck">
	<path class="st2" d="M291.9,652.4c0,4.9,4,8.8,8.8,8.8s8.8-4,8.8-8.8s-4-8.8-8.8-8.8S291.9,647.6,291.9,652.4z M304.2,652.4
		c0,1.9-1.6,3.5-3.5,3.5s-3.5-1.6-3.5-3.5c0-1.9,1.6-3.5,3.5-3.5S304.2,650.5,304.2,652.4z"/>
	<path class="st3" d="M407.9,700.4l-7.5,12.8c-2.8,4.7-7.8,7.6-13.2,7.6h-6.6c-1.5,0-2.6,1.2-2.6,2.6c0,1.5,1.2,2.6,2.6,2.6h6.6
		c7.3,0,14.1-3.9,17.8-10.2l7.5-12.8c1.6-2.7,5.7-1.6,5.7,1.6v55.7c0,18.9-15.4,34.3-34.3,34.3h-82.7c-18.9,0-34.3-15.4-34.3-34.3
		c0-11.4,5.6-22,15.1-28.5c5.8-3,10.2-6.2,13.3-9.8c5-5.6,4.1-14.1-1.6-18.7c-2.1-1.7-4.1-3.6-5.8-5.7c1.2-0.8,2.6-2,4.3-3.4
		c2.6-2.4,6.3-6,8-9.1c3.1-5.3,0.7-11.6-4.4-13.9c-6.3-2.9-13.1-7.5-16.5-13.5c5.4-18.9,22.6-31.8,42.4-31.5
		c23.5,0.3,42.7,19.7,42.8,43.3c0,13.4-6,25.9-16.6,34.2c-6.8,5.3-6.4,16.4,2.1,20.8c4.4,2.3,7.4,1.1,20.8,1.4
		c1.5,0,2.6-1.2,2.6-2.6c0-1.5-1.2-2.6-2.6-2.6c-14.9-0.3-15.5,0.7-18.6-1c-4.5-2.4-4.9-8.7-1-11.8c11.9-9.3,18.6-23.3,18.6-38.4
		c-0.1-26.4-21.6-48.2-48-48.6c-22.5-0.3-42.1,14.8-47.8,36.2c-3.9,3.7-8.9,4.9-14.2,4.4c-4-0.3-11.4,0.6-14.3,3.3
		c-2.7,2.5-3,6.6-0.6,9.3c3.8,4.4,8,8.4,12.4,11.8c1.1,0.9,2.8,0.7,3.7-0.4c0.9-1.1,0.7-2.8-0.4-3.7c-4.2-3.3-8.1-7-11.7-11.2
		c-0.5-0.5-0.4-1.4,0.2-1.9c1.2-1.1,6.5-2.2,10.3-1.9c2.2,0.2,4.1,0.2,5.9-0.1c4.1-0.5,7.8-2,10.8-4.4c4.2,6,10.9,10.6,17.6,13.7
		c2.3,1.1,3.5,3.9,2.1,6.4c-0.5,0.9-1.4,2-1.3,1.9c-3,3.8-7.9,8.2-10.7,9.8c-5.2-1.5-10.3-3.8-15.3-6.8c-1.3-0.8-2.9-0.3-3.6,0.9
		c-0.8,1.3-0.3,2.9,0.9,3.6c5.4,3.2,11,5.7,16.7,7.4c6.6,8.6,10.4,8.2,10.9,13.7c0.2,2.1-0.5,4.1-1.9,5.6
		c-4.6,5.1-11.6,8.4-12.2,8.8c-11,7.4-17.6,19.7-17.6,32.9c0,21.8,17.8,39.6,39.6,39.6h82.7c21.8,0,39.6-17.8,39.6-39.6v-55.7
		C423.4,696.2,412.2,693.1,407.9,700.4z"/>
</g>
<g id="mobile">
	<title>Mobile P</title>
	<path class="st1" d="M602.9,704h-47.8c0,0-0.1,0-0.1-0.1V534.1c0,0,0-0.1,0.1-0.1h47.8c0,0,0.1,0,0.1,0.1L602.9,704
		C603,704,603,704,602.9,704z"/>
	<path class="st2" d="M581.8,527h-98.5c-15.6,0-28.3,12.7-28.3,28.3v215.4c0,15.6,12.7,28.3,28.3,28.3h98.5
		c15.6,0,28.3-12.7,28.3-28.3V555.3C610.1,539.7,597.4,527,581.8,527z M581.8,791.6h-98.5c-11.6,0-20.9-9.4-20.9-20.9v-16h140.3v16
		C602.7,782.2,593.3,791.6,581.8,791.6z M602.7,563.9h-8.6c-2,0-3.7,1.7-3.7,3.7c0,2,1.7,3.7,3.7,3.7h8.6v176H462.4v-176h100.3
		c2,0,3.7-1.7,3.7-3.7c0-2-1.7-3.7-3.7-3.7H462.4v-8.6c0-11.6,9.4-20.9,20.9-20.9h98.5c11.6,0,20.9,9.4,20.9,20.9V563.9z"/>
	<path class="st2" d="M574.8,571.3h6.8c2,0,3.7-1.7,3.7-3.7c0-2-1.7-3.7-3.7-3.7h-6.8c-2,0-3.7,1.7-3.7,3.7
		C571.1,569.7,572.8,571.3,574.8,571.3z"/>
	<path class="st2" d="M532.5,760.2c-7.1,0-12.9,5.8-12.9,12.9c0,7.1,5.8,12.9,12.9,12.9s12.9-5.8,12.9-12.9l0,0
		C545.5,766,539.7,760.2,532.5,760.2z M532.5,778.7c-3.1,0-5.5-2.5-5.5-5.5c0-3.1,2.5-5.5,5.5-5.5c3.1,0,5.5,2.5,5.5,5.5l0,0
		C538.1,776.2,535.6,778.7,532.5,778.7z"/>
	<path class="st2" d="M527.4,645.8c0,2,1.7,3.7,3.7,3.7h20.7c2,0,3.7-1.7,3.7-3.7s-1.7-3.7-3.7-3.7h-20.7
		C529,642.1,527.4,643.7,527.4,645.8z"/>
	<path class="st2" d="M586.4,642.1h-13.3c-2,0-3.7,1.7-3.7,3.7s1.7,3.7,3.7,3.7h13.3c2,0,3.7-1.7,3.7-3.7S588.5,642.1,586.4,642.1z"
		/>
	<path class="st2" d="M487.5,676.5h-8.9c-2,0-3.7,1.7-3.7,3.7c0,2,1.7,3.7,3.7,3.7h8.9c2,0,3.7-1.7,3.7-3.7
		C491.2,678.2,489.5,676.5,487.5,676.5L487.5,676.5z"/>
	<path class="st2" d="M525.2,676.5h-20.7c-2,0-3.7,1.7-3.7,3.7c0,2,1.7,3.7,3.7,3.7h20.7c2,0,3.7-1.7,3.7-3.7
		C528.8,678.2,527.2,676.5,525.2,676.5z"/>
	<path class="st2" d="M586.4,676.5h-39.9c-2,0-3.7,1.7-3.7,3.7c0,2,1.7,3.7,3.7,3.7h39.9c2,0,3.7-1.7,3.7-3.7
		C590.1,678.2,588.5,676.5,586.4,676.5L586.4,676.5z"/>
	<path class="st2" d="M487.5,711h-8.9c-2,0-3.7,1.7-3.7,3.7c0,2,1.7,3.7,3.7,3.7h8.9c2,0,3.7-1.7,3.7-3.7
		C491.2,712.7,489.5,711,487.5,711L487.5,711z"/>
	<path class="st2" d="M554.7,711h-50.2c-2,0-3.7,1.7-3.7,3.7c0,2,1.7,3.7,3.7,3.7h50.2c2,0,3.7-1.7,3.7-3.7
		C558.4,712.7,556.7,711,554.7,711z"/>
	<path class="st2" d="M586.4,711h-10.3c-2,0-3.7,1.7-3.7,3.7c0,2,1.7,3.7,3.7,3.7h10.3c2,0,3.7-1.7,3.7-3.7
		C590.1,712.7,588.5,711,586.4,711L586.4,711z"/>
	<path class="st2" d="M519.7,593.1c0.6-1.9-0.4-4-2.3-4.7s-4,0.4-4.7,2.3l-18.5,55.4c-0.6,1.9,0.4,4,2.3,4.7s4-0.4,4.7-2.3
		L519.7,593.1z"/>
	<path class="st2" d="M485.4,632.6c2,0,3.7-1.7,3.7-3.7c0-1-0.4-1.9-1.1-2.6l-9.7-9.7l9.7-9.7c1.4-1.5,1.4-3.8,0-5.2
		c-1.4-1.4-3.7-1.4-5.2,0L470.5,614c-1.4,1.4-1.4,3.8,0,5.2l12.3,12.3C483.5,632.2,484.4,632.6,485.4,632.6z"/>
	<path class="st2" d="M525.9,631.5c1.4,1.4,3.8,1.4,5.2,0l12.3-12.3c1.4-1.4,1.4-3.8,0-5.2l-12.3-12.3c-1.5-1.4-3.8-1.4-5.2,0
		c-1.4,1.4-1.4,3.7,0,5.2l9.7,9.7l-9.7,9.7C524.4,627.7,524.4,630.1,525.9,631.5z"/>
</g>
<g id="code">
	<rect x="1307" y="424" class="st1" width="238" height="193"/>
	<path class="st4" d="M1599.4,628.1h-265.6c-20.9,0-37.8-17-37.8-37.8V364.8c0-20.9,17-37.8,37.8-37.8h265.6
		c20.9,0,37.8,17,37.8,37.8v225.4C1637.3,611.1,1620.3,628.1,1599.4,628.1z M1333.8,338.3c-14.6,0-26.6,11.9-26.6,26.6v225.4
		c0,14.6,11.9,26.6,26.6,26.6h265.6c14.6,0,26.6-11.9,26.6-26.6V364.8c0-14.6-11.9-26.6-26.6-26.6H1333.8z"/>
	<path class="st4" d="M1631.6,417.2h-330c-3.1,0-5.6-2.5-5.6-5.6c0-3.1,2.5-5.6,5.6-5.6h330c3.1,0,5.6,2.5,5.6,5.6
		C1637.3,414.7,1634.7,417.2,1631.6,417.2z"/>
	<path d="M1392.3,390.3c-9.8,0-17.8-8-17.8-17.8c0-9.8,8-17.8,17.8-17.8c9.8,0,17.8,8,17.8,17.8
		C1410.1,382.3,1402.1,390.3,1392.3,390.3z M1392.3,365.9c-3.6,0-6.6,2.9-6.6,6.6s2.9,6.6,6.6,6.6c3.6,0,6.6-2.9,6.6-6.6
		S1395.9,365.9,1392.3,365.9z"/>
	<path d="M1337.5,390.1c-9.8,0-17.8-8-17.8-17.8c0-9.8,8-17.8,17.8-17.8c9.8,0,17.8,8,17.8,17.8
		C1355.3,382.1,1347.3,390.1,1337.5,390.1z M1337.5,365.7c-3.6,0-6.6,2.9-6.6,6.6c0,3.6,2.9,6.6,6.6,6.6c3.6,0,6.6-2.9,6.6-6.6
		C1344,368.6,1341.1,365.7,1337.5,365.7z"/>
	<path d="M1447,390.4c-9.8,0-17.8-8-17.8-17.8c0-9.8,8-17.8,17.8-17.8c9.8,0,17.8,8,17.8,17.8C1464.9,382.4,1456.9,390.4,1447,390.4
		z M1447,366c-3.6,0-6.6,2.9-6.6,6.6s2.9,6.6,6.6,6.6c3.6,0,6.6-2.9,6.6-6.6S1450.7,366,1447,366z"/>
	<path class="st0" d="M1435,564.6h-48c-4.1,0-7.5,2.6-7.5,5.8c0,3.2,3.4,5.8,7.5,5.8h48c4.1,0,7.5-2.6,7.5-5.8
		C1442.5,567.2,1439.2,564.6,1435,564.6z"/>
	<path class="st0" d="M1556.9,564.6H1462c-4.1,0-7.5,2.6-7.5,5.8c0,3.2,3.4,5.8,7.5,5.8h94.9c4.1,0,7.5-2.6,7.5-5.8
		C1564.4,567.2,1561,564.6,1556.9,564.6z"/>
	<path class="st0" d="M1435,587h-48c-4.1,0-7.5,2.6-7.5,5.8c0,3.2,3.4,5.8,7.5,5.8h48c4.1,0,7.5-2.6,7.5-5.8
		C1442.5,589.6,1439.2,587,1435,587z"/>
	<path class="st0" d="M1556.9,587H1462c-4.1,0-7.5,2.6-7.5,5.8c0,3.2,3.4,5.8,7.5,5.8h94.9c4.1,0,7.5-2.6,7.5-5.8
		C1564.4,589.6,1561,587,1556.9,587z"/>
	<path class="st0" d="M1564.6,446c0-8.3-8.7-15-19.4-15h-146.6c-10.7,0-19.4,6.7-19.4,15v78.5v0v13.7c0,8.3,8.7,15,19.4,15h146.6
		c10.7,0,19.4-6.7,19.4-15V446z M1549.6,538.2c0,1.9-2,3.4-4.4,3.4h-146.6c-2.4,0-4.4-1.5-4.4-3.4v-11.3l54.9-42.4l37.9,33
		c2.7,2.4,7.5,2.6,10.6,0.5c3.1-2.1,3.4-5.8,0.6-8.2l-3.4-3l16.9-13.1l37.8,33V538.2z M1549.6,509.2l-28.8-25.1
		c-2.2-1.9-5.3-3-8.5-3.1c-3.3-0.1-6.4,0.9-8.7,2.7l-18.6,14.4l-26.7-23.2c-2.2-1.9-5.3-3-8.5-3.1c-3.2-0.1-6.4,0.9-8.7,2.7
		l-46.6,36V446c0-1.9,2-3.4,4.4-3.4h146.6c2.4,0,4.4,1.5,4.4,3.4V509.2z"/>
	<path d="M1338,453.6h23.5c2.6,0,4.6-2.2,4.6-4.9c0-2.7-2.1-4.9-4.6-4.9H1338c-2.6,0-4.6,2.2-4.6,4.9
		C1333.4,451.4,1335.5,453.6,1338,453.6z"/>
	<path d="M1377.5,453.6h11.1c2.6,0,4.6-2.2,4.6-4.9c0-2.7-2.1-4.9-4.6-4.9h-11.1c-2.6,0-4.6,2.2-4.6,4.9
		C1372.9,451.4,1375,453.6,1377.5,453.6z"/>
	<path d="M1373.2,461h-15.4c-2.6,0-4.6,2.2-4.6,4.9c0,2.7,2.1,4.9,4.6,4.9h15.4c2.6,0,4.6-2.2,4.6-4.9
		C1377.8,463.2,1375.8,461,1373.2,461z"/>
	<path d="M1446,478.9h-15.4c-2.6,0-4.6,2.2-4.6,4.9c0,2.7,2.1,4.9,4.6,4.9h15.4c2.6,0,4.6-2.2,4.6-4.9
		C1450.7,481.1,1448.6,478.9,1446,478.9z"/>
	<path d="M1382.8,465.9c0,2.7,2.1,4.9,4.6,4.9h37c2.6,0,4.6-2.2,4.6-4.9c0-2.7-2.1-4.9-4.6-4.9h-37
		C1384.9,461,1382.8,463.2,1382.8,465.9z"/>
	<path d="M1368,483.8c0,2.7,2.1,4.9,4.6,4.9h8c2.6,0,4.6-2.2,4.6-4.9c0-2.7-2.1-4.9-4.6-4.9h-8C1370,478.9,1368,481.1,1368,483.8z"
		/>
	<path d="M1416.4,488.7c2.6,0,4.6-2.2,4.6-4.9c0-2.7-2.1-4.9-4.6-4.9h-22.2c-2.6,0-4.6,2.2-4.6,4.9c0,2.7,2.1,4.9,4.6,4.9H1416.4z"
		/>
	<path d="M1366.1,547c0-2.7-2.1-4.9-4.6-4.9H1338c-2.6,0-4.6,2.2-4.6,4.9c0,2.7,2.1,4.9,4.6,4.9h23.5
		C1364,551.9,1366.1,549.7,1366.1,547z"/>
	<path d="M1377.5,542.2c-2.6,0-4.6,2.2-4.6,4.9c0,2.7,2.1,4.9,4.6,4.9h11.1c2.6,0,4.6-2.2,4.6-4.9c0-2.7-2.1-4.9-4.6-4.9H1377.5z"/>
	<path d="M1377.8,564.3c0-2.7-2.1-4.9-4.6-4.9h-15.4c-2.6,0-4.6,2.2-4.6,4.9c0,2.7,2.1,4.9,4.6,4.9h15.4
		C1375.8,569.2,1377.8,567,1377.8,564.3z"/>
	<path d="M1380.6,577.2h-8c-2.6,0-4.6,2.2-4.6,4.9c0,2.7,2.1,4.9,4.6,4.9h8c2.6,0,4.6-2.2,4.6-4.9
		C1385.2,579.4,1383.2,577.2,1380.6,577.2z"/>
	<path d="M1446,577.2h-15.4c-2.6,0-4.6,2.2-4.6,4.9c0,2.7,2.1,4.9,4.6,4.9h15.4c2.6,0,4.6-2.2,4.6-4.9
		C1450.7,579.4,1448.6,577.2,1446,577.2z"/>
	<path d="M1429.1,564.3c0-2.7-2.1-4.9-4.6-4.9h-37c-2.6,0-4.6,2.2-4.6,4.9c0,2.7,2.1,4.9,4.6,4.9h37
		C1427,569.2,1429.1,567,1429.1,564.3z"/>
	<path d="M1416.4,577.2h-22.2c-2.6,0-4.6,2.2-4.6,4.9c0,2.7,2.1,4.9,4.6,4.9h22.2c2.6,0,4.6-2.2,4.6-4.9
		C1421,579.4,1419,577.2,1416.4,577.2z"/>
	<path d="M1338,511h13c2.6,0,4.6-2.2,4.6-4.9c0-2.7-2.1-4.9-4.6-4.9h-13c-2.6,0-4.6,2.2-4.6,4.9C1333.4,508.8,1335.5,511,1338,511z"
		/>
	<path d="M1416.1,506.1c0-2.7-2.1-4.9-4.6-4.9H1364c-2.6,0-4.6,2.2-4.6,4.9c0,2.7,2.1,4.9,4.6,4.9h47.5
		C1414,511,1416.1,508.8,1416.1,506.1z"/>
	<path d="M1407.5,523.4c0-2.7-2.1-4.9-4.6-4.9h-45c-2.6,0-4.6,2.2-4.6,4.9c0,2.7,2.1,4.9,4.6,4.9h45
		C1405.4,528.3,1407.5,526.1,1407.5,523.4z"/>
	<path d="M1415.8,528.3h8.6c2.6,0,4.6-2.2,4.6-4.9c0-2.7-2.1-4.9-4.6-4.9h-8.6c-2.6,0-4.6,2.2-4.6,4.9
		C1411.2,526.1,1413.2,528.3,1415.8,528.3z"/>
	<path d="M1520.9,556.4h-29.6c-2.6,0-4.6,2.2-4.6,4.9c0,2.7,2.1,4.9,4.6,4.9h29.6c2.6,0,4.6-2.2,4.6-4.9
		C1525.6,558.6,1523.5,556.4,1520.9,556.4z"/>
	<path d="M1596.2,556.4h-58.6c-2.6,0-4.6,2.2-4.6,4.9c0,2.7,2.1,4.9,4.6,4.9h58.6c2.6,0,4.6-2.2,4.6-4.9
		C1600.9,558.6,1598.8,556.4,1596.2,556.4z"/>
	<path d="M1520.9,575.3h-29.6c-2.6,0-4.6,2.2-4.6,4.9c0,2.7,2.1,4.9,4.6,4.9h29.6c2.6,0,4.6-2.2,4.6-4.9
		C1525.6,577.5,1523.5,575.3,1520.9,575.3z"/>
	<path d="M1596.2,575.3h-58.6c-2.6,0-4.6,2.2-4.6,4.9c0,2.7,2.1,4.9,4.6,4.9h58.6c2.6,0,4.6-2.2,4.6-4.9
		C1600.9,577.5,1598.8,575.3,1596.2,575.3z"/>
	<path d="M1601,456.4c0-7-5.4-12.6-12-12.6h-90.5c-6.6,0-12,5.7-12,12.6v66.1v0v11.6c0,7,5.4,12.6,12,12.6h90.5
		c6.6,0,12-5.7,12-12.6V456.4z M1591.7,534.1c0,1.6-1.2,2.9-2.7,2.9h-90.5c-1.5,0-2.7-1.3-2.7-2.9v-9.5l33.9-35.7l23.4,27.8
		c1.7,2,4.6,2.2,6.5,0.4c1.9-1.8,2.1-4.9,0.4-6.9l-2.1-2.5l10.5-11l23.4,27.8V534.1z M1591.7,509.7l-17.8-21.2
		c-1.3-1.6-3.3-2.5-5.3-2.6c-2-0.1-4,0.8-5.4,2.3l-11.5,12.1l-16.5-19.6c-1.3-1.6-3.3-2.5-5.3-2.6c-2-0.1-4,0.8-5.4,2.3l-28.8,30.4
		v-54.3c0-1.6,1.2-2.9,2.7-2.9h90.5c1.5,0,2.7,1.3,2.7,2.9V509.7z"/>
</g>
</svg>
